<?xml version="1.0" encoding="UTF-8" standalone="no"?><!DOCTYPE svg PUBLIC "-//W3C//DTD SVG 1.1//EN" "http://www.w3.org/Graphics/SVG/1.1/DTD/svg11.dtd"><svg width="100%" height="100%" viewBox="0 0 1430 150" version="1.1" xmlns="http://www.w3.org/2000/svg" xmlns:xlink="http://www.w3.org/1999/xlink" xml:space="preserve" xmlns:serif="http://www.serif.com/" style="fill-rule:evenodd;clip-rule:evenodd;stroke-linejoin:round;stroke-miterlimit:2;"><rect x="0.221" y="0.108" width="119.129" height="149.507" style="fill:#2b24ff;fill-rule:nonzero;"/><path d="M60.631,0.108c32.147,0 58.335,25.822 58.335,58.005l0.164,0l-29.522,0c0,-16.448 -13.395,-27.248 -28.976,-27.248" style="fill:#f1f1f1;fill-rule:nonzero;"/><path d="M60.631,58.114c32.256,0 58.608,27.028 58.608,60.636l0.164,0l-28.21,0c0,-17.16 -14.87,-31.305 -30.507,-31.305" style="fill:#f1f1f1;fill-rule:nonzero;"/><rect x="30.726" y="30.865" width="29.905" height="27.248" style="fill:#f1f1f1;fill-rule:nonzero;"/><rect x="0" y="118.75" width="90.973" height="30.976" style="fill:#f1f1f1;fill-rule:nonzero;"/><rect x="0" y="0.108" width="30.725" height="120.176" style="fill:#f1f1f1;fill-rule:nonzero;"/><rect x="119.348" y="0.108" width="119.894" height="149.671" style="fill:#2b24ff;fill-rule:nonzero;"/><rect x="148.706" y="0.108" width="31.819" height="30.537" style="fill:#f1f1f1;fill-rule:nonzero;"/><path d="M209.063,59.1c0,16.612 -13.394,30.099 -29.85,30.099l0,-30.099l29.85,0Z" style="fill:#f1f1f1;fill-rule:nonzero;"/><rect x="119.403" y="30.591" width="29.687" height="119.134" style="fill:#f1f1f1;fill-rule:nonzero;"/><path d="M179.105,88.759c32.639,0 60.084,27.138 60.084,60.965l-30.233,0c0,-17.27 -13.996,-29.112 -29.851,-29.112" style="fill:#f1f1f1;fill-rule:nonzero;"/><path d="M179.213,0.108c32.967,0 59.865,26.261 59.865,58.882l0.164,0l-30.233,0c0,-16.667 -14.215,-28.344 -30.233,-28.344" style="fill:#f1f1f1;fill-rule:nonzero;"/><rect x="239.134" y="0" width="118.364" height="149.781" style="fill:#2b24ff;fill-rule:nonzero;"/><path d="M239.243,30.041l29.304,0l0,89.2l-29.304,0" style="fill:#f1f1f1;fill-rule:nonzero;"/><path d="M383.466,149.78l-114.919,0l0,-30.537l114.919,0" style="fill:#f1f1f1;fill-rule:nonzero;"/><path d="M357.497,0l-88.95,0l0,31.36l88.95,0" style="fill:#f1f1f1;fill-rule:nonzero;"/><path d="M293.694,87.936c-30.288,0 -54.836,-26.864 -54.836,-60.033l-0.109,0l27.828,0c0,16.941 11.918,30.647 26.625,30.647" style="fill:#f1f1f1;fill-rule:nonzero;"/><path d="M327.045,58.608l-34.553,0l0,29.331l34.553,0" style="fill:#f1f1f1;fill-rule:nonzero;"/><path d="M238.749,31.356c0,-17.325 13.34,-31.305 29.796,-31.305l0,31.305l-29.796,0Z" style="fill:#f1f1f1;fill-rule:nonzero;"/><rect x="357.387" y="0.108" width="118.363" height="149.726" style="fill:#2b24ff;fill-rule:nonzero;"/><path d="M416.322,0.108c32.695,0 59.32,25.987 59.32,58.278l0.162,0l-30.012,0c0,-16.502 -13.287,-27.248 -29.142,-27.248" style="fill:#f1f1f1;fill-rule:nonzero;"/><path d="M357.387,58.388c0,-32.072 26.242,-58.279 58.881,-58.279l0,-0.11l0.328,31.14c-16.675,0 -29.522,11.678 -29.522,27.248" style="fill:#f1f1f1;fill-rule:nonzero;"/><rect x="357.387" y="87.72" width="29.413" height="62.117" style="fill:#f1f1f1;fill-rule:nonzero;"/><rect x="446.392" y="87.72" width="58.117" height="62.226" style="fill:#f1f1f1;fill-rule:nonzero;"/><path d="M416.596,87.829c-16.401,0 -29.741,-13.158 -29.741,-29.441l29.741,0l0,29.441Z" style="fill:#f1f1f1;fill-rule:nonzero;"/><path d="M445.679,58.388c0,16.283 -13.121,29.441 -29.358,29.441l0,-29.441l29.358,0Z" style="fill:#f1f1f1;fill-rule:nonzero;"/><rect x="475.75" y="0.108" width="118.362" height="149.836" style="fill:#2b24ff;fill-rule:nonzero;"/><path d="M475.75,149.998l0,-149.891l28.704,-0l0,149.891" style="fill:#f1f1f1;fill-rule:nonzero;"/><path d="M504.454,87.388l0,-28.18l29.85,0l0,28.18" style="fill:#f1f1f1;fill-rule:nonzero;"/><path d="M594.388,0.218c0,32.785 -27.171,58.936 -59.808,58.936l-0.221,0l0.221,-28.18c16.675,0 29.796,-14.857 29.796,-30.757" style="fill:#f1f1f1;fill-rule:nonzero;"/><path d="M534.304,87.39c33.242,0 59.808,28.345 59.808,62.39l0,0.22l-30.067,-0.055c0,-17.379 -13.613,-31.195 -29.796,-31.195" style="fill:#f1f1f1;fill-rule:nonzero;"/><rect x="594.112" y="0.602" width="120.771" height="149.068" style="fill:#2b24ff;fill-rule:nonzero;"/><rect x="594.112" y="0.271" width="120.608" height="30.757" style="fill:#f1f1f1;fill-rule:nonzero;"/><rect x="655.183" y="120.886" width="28.921" height="29.002" style="fill:#f1f1f1;fill-rule:nonzero;"/><rect x="624.513" y="31.032" width="30.725" height="89.693" style="fill:#f1f1f1;fill-rule:nonzero;"/><rect x="836.417" y="0" width="118.967" height="149.671" style="fill:#2b24ff;fill-rule:nonzero;"/><path d="M836.529,30.041l29.413,0l0,89.145l-29.413,0" style="fill:#f1f1f1;fill-rule:nonzero;"/><path d="M955.383,149.674l-89.446,0l0,-30.483l89.446,0" style="fill:#f1f1f1;fill-rule:nonzero;"/><path d="M955.383,0l-89.446,0l0,31.305l89.446,0" style="fill:#f1f1f1;fill-rule:nonzero;"/><path d="M891.308,87.881c-30.45,0 -55.108,-26.864 -55.108,-59.978l-0.108,0l27.938,0c0,16.886 11.971,30.592 26.733,30.592" style="fill:#f1f1f1;fill-rule:nonzero;"/><path d="M924.767,58.553l-34.771,0l0,29.331l34.771,0" style="fill:#f1f1f1;fill-rule:nonzero;"/><path d="M836.033,31.305c0,-17.27 13.396,-31.305 29.962,-31.305l0,31.305l-29.962,0Z" style="fill:#f1f1f1;fill-rule:nonzero;"/><rect x="714.938" y="0" width="121.479" height="149.671" style="fill:#2b24ff;fill-rule:nonzero;"/><path d="M775.788,87.499c-16.946,0 -30.671,-13.213 -30.671,-29.55l30.671,0l0,29.55Z" style="fill:#f1f1f1;fill-rule:nonzero;"/><rect x="714.721" y="87.225" width="30.396" height="62.445" style="fill:#f1f1f1;fill-rule:nonzero;"/><rect x="805.638" y="87.5" width="30.725" height="62.171" style="fill:#f1f1f1;fill-rule:nonzero;"/><rect x="714.938" y="0" width="30.179" height="57.895" style="fill:#f1f1f1;fill-rule:nonzero;"/><rect x="805.746" y="0" width="30.617" height="57.895" style="fill:#f1f1f1;fill-rule:nonzero;"/><path d="M775.35,87.499c16.95,0 30.671,-13.213 30.671,-29.55l-30.671,0l0,29.55Z" style="fill:#f1f1f1;fill-rule:nonzero;"/><rect x="955.383" y="0.435" width="117.979" height="149.068" style="fill:#2b24ff;fill-rule:nonzero;"/><rect x="955.383" y="0.435" width="29.029" height="86.842" style="fill:#f1f1f1;fill-rule:nonzero;"/><rect x="1044.987" y="118.75" width="28.429" height="30.921" style="fill:#f1f1f1;fill-rule:nonzero;"/><path d="M1044.987,149.395c-33.183,0 -60.083,-27.741 -60.083,-62.116l29.904,0c0,17.544 14.108,31.36 30.179,31.36" style="fill:#f1f1f1;fill-rule:nonzero;"/><rect x="1073.367" y="0" width="119.783" height="149.397" style="fill:#2b24ff;fill-rule:nonzero;"/><path d="M1133.883,0c32.642,0 59.213,26.151 59.213,58.717l0.162,0l-29.958,0c0,-16.612 -13.671,-28.07 -29.525,-28.07" style="fill:#f1f1f1;fill-rule:nonzero;"/><path d="M1074.296,58.768c0,-32.292 26.458,-58.717 59.479,-58.717l0.112,-0l-0.112,30.647c-16.838,0 -29.412,12.445 -29.412,28.07" style="fill:#f1f1f1;fill-rule:nonzero;"/><path d="M1133.175,149.396c-32.637,0 -59.208,-27.906 -59.208,-62.555l-0.167,0l29.963,0c0,17.708 13.667,29.934 29.521,29.934" style="fill:#f1f1f1;fill-rule:nonzero;"/><path d="M1192.767,86.841c0,34.375 -26.463,62.555 -59.483,62.555l-0.108,0l0.108,-32.621c16.838,0 29.413,-13.267 29.413,-29.934" style="fill:#f1f1f1;fill-rule:nonzero;"/><rect x="1192.658" y="0" width="117.979" height="149.397" style="fill:#2b24ff;fill-rule:nonzero;"/><path d="M1252.25,0c32.146,0 58.333,26.151 58.333,58.717l0.162,0l-29.521,0c0,-16.612 -13.45,-28.07 -29.088,-28.07" style="fill:#f1f1f1;fill-rule:nonzero;"/><path d="M1193.533,58.768c0,-32.292 26.025,-58.717 58.554,-58.717l0.108,-0l-0.108,30.647c-16.621,0 -28.975,12.445 -28.975,28.07" style="fill:#f1f1f1;fill-rule:nonzero;"/><path d="M1251.538,149.396c-32.146,0 -58.333,-27.906 -58.333,-62.555l-0.163,0l29.521,0c0,17.708 13.45,29.934 29.083,29.934" style="fill:#f1f1f1;fill-rule:nonzero;"/><path d="M1310.2,86.841c0,34.375 -26.025,62.555 -58.554,62.555l-0.108,0l0.108,-32.621c16.621,0 28.979,-13.267 28.979,-29.934" style="fill:#f1f1f1;fill-rule:nonzero;"/><rect x="1310.692" y="0" width="118.475" height="149.233" style="fill:#2b24ff;fill-rule:nonzero;"/><rect x="1310.692" y="30.754" width="28.65" height="118.695" style="fill:#f1f1f1;fill-rule:nonzero;"/><path d="M1398.988,58.773c0,16.009 -13.342,29.002 -29.796,29.002l0,-29.002l29.796,0Z" style="fill:#f1f1f1;fill-rule:nonzero;"/><path d="M1369.738,0c32.642,0 59.267,26.151 59.267,58.717l0.162,0l-29.958,0c0,-16.612 -13.617,-29.112 -29.471,-29.112" style="fill:#f1f1f1;fill-rule:nonzero;"/></svg>